G04 #@! TF.FileFunction,Copper,L2,Bot,Signal*
%FSLAX46Y46*%
G04 Gerber Fmt 4.6, Leading zero omitted, Abs format (unit mm)*
G04 Created by KiCad (PCBNEW (2016-02-15 BZR 6559)-product) date Friday, 26 February 2016 'pmt' 22:53:27*
%MOMM*%
G01*
G04 APERTURE LIST*
%ADD10C,0.100000*%
%ADD11R,1.727200X1.727200*%
%ADD12O,1.727200X1.727200*%
%ADD13C,1.524000*%
%ADD14O,1.500000X1.600000*%
%ADD15C,0.250000*%
G04 APERTURE END LIST*
D10*
D11*
X145880000Y-98500000D03*
D12*
X145880000Y-101040000D03*
X148420000Y-98500000D03*
X148420000Y-101040000D03*
X150960000Y-98500000D03*
X150960000Y-101040000D03*
X153500000Y-98500000D03*
X153500000Y-101040000D03*
X156040000Y-98500000D03*
X156040000Y-101040000D03*
X158580000Y-98500000D03*
X158580000Y-101040000D03*
D13*
X144823935Y-91376269D03*
X144823935Y-93876269D03*
X147823935Y-91376269D03*
X147823935Y-93876269D03*
X150823935Y-93876269D03*
X150823935Y-91376269D03*
X153823935Y-91376269D03*
X153823935Y-93876269D03*
X156823935Y-93876269D03*
X156823935Y-91376269D03*
X159823935Y-91376269D03*
X159823935Y-93876269D03*
D14*
X162723935Y-92626269D03*
X141923935Y-92626269D03*
D15*
X145880000Y-101040000D02*
X147231399Y-99688601D01*
X149771399Y-97929471D02*
X152737600Y-94963270D01*
X147231399Y-99688601D02*
X148990529Y-99688601D01*
X148990529Y-99688601D02*
X149771399Y-98907731D01*
X149771399Y-98907731D02*
X149771399Y-97929471D01*
X152737600Y-94963270D02*
X154345696Y-94963270D01*
X154345696Y-94963270D02*
X155736934Y-93572032D01*
X155736934Y-93572032D02*
X155736934Y-92463270D01*
X155736934Y-92463270D02*
X156061936Y-92138268D01*
X156061936Y-92138268D02*
X156823935Y-91376269D01*
X148420000Y-101040000D02*
X149771399Y-99688601D01*
X149771399Y-99688601D02*
X151530529Y-99688601D01*
X152148601Y-99070529D02*
X152148601Y-98092269D01*
X151530529Y-99688601D02*
X152148601Y-99070529D01*
X152148601Y-98092269D02*
X155602602Y-94638268D01*
X155602602Y-94638268D02*
X156061936Y-94638268D01*
X156061936Y-94638268D02*
X156823935Y-93876269D01*
M02*
