M48
;DRILL file {KiCad (2016-02-15 BZR 6559)-product} date Friday, 26 February 2016 'pmt' 22:53:43
;FORMAT={-:-/ absolute / inch / decimal}
FMAT,2
INCH,TZ
T1C0.030
T2C0.040
T3C0.059
%
G90
G05
M72
T1
X5.7017Y-3.5975
X5.7017Y-3.6959
X5.8198Y-3.5975
X5.8198Y-3.6959
X5.938Y-3.5975
X5.938Y-3.6959
X6.0561Y-3.5975
X6.0561Y-3.6959
X6.1742Y-3.5975
X6.1742Y-3.6959
X6.2923Y-3.5975
X6.2923Y-3.6959
T2
X5.7433Y-3.878
X5.7433Y-3.978
X5.8433Y-3.878
X5.8433Y-3.978
X5.9433Y-3.878
X5.9433Y-3.978
X6.0433Y-3.878
X6.0433Y-3.978
X6.1433Y-3.878
X6.1433Y-3.978
X6.2433Y-3.878
X6.2433Y-3.978
T3
X5.5876Y-3.6447G85X5.5876Y-3.6487
G05
X6.4065Y-3.6447G85X6.4065Y-3.6487
G05
T0
M30
