G04 #@! TF.FileFunction,Copper,L1,Top,Signal*
%FSLAX46Y46*%
G04 Gerber Fmt 4.6, Leading zero omitted, Abs format (unit mm)*
G04 Created by KiCad (PCBNEW (2016-02-15 BZR 6559)-product) date Friday, 26 February 2016 'pmt' 22:53:27*
%MOMM*%
G01*
G04 APERTURE LIST*
%ADD10C,0.100000*%
%ADD11R,1.727200X1.727200*%
%ADD12O,1.727200X1.727200*%
%ADD13C,1.524000*%
%ADD14O,1.500000X1.600000*%
%ADD15C,0.250000*%
G04 APERTURE END LIST*
D10*
D11*
X145880000Y-98500000D03*
D12*
X145880000Y-101040000D03*
X148420000Y-98500000D03*
X148420000Y-101040000D03*
X150960000Y-98500000D03*
X150960000Y-101040000D03*
X153500000Y-98500000D03*
X153500000Y-101040000D03*
X156040000Y-98500000D03*
X156040000Y-101040000D03*
X158580000Y-98500000D03*
X158580000Y-101040000D03*
D13*
X144823935Y-91376269D03*
X144823935Y-93876269D03*
X147823935Y-91376269D03*
X147823935Y-93876269D03*
X150823935Y-93876269D03*
X150823935Y-91376269D03*
X153823935Y-91376269D03*
X153823935Y-93876269D03*
X156823935Y-93876269D03*
X156823935Y-91376269D03*
X159823935Y-91376269D03*
X159823935Y-93876269D03*
D14*
X162723935Y-92626269D03*
X141923935Y-92626269D03*
D15*
X146500000Y-96766400D02*
X145880000Y-97386400D01*
X145880000Y-97386400D02*
X145880000Y-98500000D01*
X146500000Y-92700204D02*
X146500000Y-96766400D01*
X147823935Y-91376269D02*
X146500000Y-92700204D01*
X147823935Y-93876269D02*
X147823935Y-97903935D01*
X147823935Y-97903935D02*
X148420000Y-98500000D01*
X150960000Y-98500000D02*
X152148601Y-99688601D01*
X152148601Y-99688601D02*
X152148601Y-101610529D01*
X152148601Y-101610529D02*
X151530529Y-102228601D01*
X151530529Y-102228601D02*
X145309471Y-102228601D01*
X145309471Y-102228601D02*
X143500000Y-100419130D01*
X143500000Y-100419130D02*
X143500000Y-98432202D01*
X143500000Y-92700204D02*
X143500000Y-98432202D01*
X144823935Y-91376269D02*
X143500000Y-92700204D01*
X150960000Y-101040000D02*
X150960000Y-100259130D01*
X150960000Y-100259130D02*
X149608601Y-98907731D01*
X149608601Y-98907731D02*
X149608601Y-92591603D01*
X149608601Y-92591603D02*
X150061936Y-92138268D01*
X150061936Y-92138268D02*
X150823935Y-91376269D01*
X156750000Y-95250000D02*
X157391399Y-95891399D01*
X157391399Y-95891399D02*
X157391399Y-99070529D01*
X154363599Y-99363599D02*
X153500000Y-98500000D01*
X157391399Y-99070529D02*
X156773327Y-99688601D01*
X156773327Y-99688601D02*
X154688601Y-99688601D01*
X154688601Y-99688601D02*
X154363599Y-99363599D01*
X153588904Y-95250000D02*
X156750000Y-95250000D01*
X153823935Y-91376269D02*
X152736934Y-92463270D01*
X152736934Y-92463270D02*
X152736934Y-94398030D01*
X152736934Y-94398030D02*
X153588904Y-95250000D01*
X159823935Y-91376269D02*
X159823935Y-92267507D01*
X159823935Y-92267507D02*
X161250000Y-93693572D01*
X161250000Y-93693572D02*
X161250000Y-101750000D01*
X153500000Y-102500000D02*
X153500000Y-101040000D01*
X161250000Y-101750000D02*
X159750000Y-103250000D01*
X159750000Y-103250000D02*
X154250000Y-103250000D01*
X154250000Y-103250000D02*
X153500000Y-102500000D01*
X152250000Y-94665924D02*
X152250000Y-91193572D01*
X152250000Y-91193572D02*
X151345696Y-90289268D01*
X151345696Y-90289268D02*
X147302174Y-90289268D01*
X147302174Y-90289268D02*
X145910936Y-91680506D01*
X145910936Y-91680506D02*
X145910936Y-92789268D01*
X145910936Y-92789268D02*
X145585934Y-93114270D01*
X145585934Y-93114270D02*
X144823935Y-93876269D01*
X156040000Y-98500000D02*
X155176401Y-97636401D01*
X155176401Y-97636401D02*
X155176401Y-97592325D01*
X155176401Y-97592325D02*
X152250000Y-94665924D01*
X152250000Y-99009130D02*
X152250000Y-95302334D01*
X152250000Y-95302334D02*
X150823935Y-93876269D01*
X156040000Y-101040000D02*
X155176401Y-100176401D01*
X155176401Y-100176401D02*
X154395531Y-100176401D01*
X154395531Y-100176401D02*
X153907731Y-99688601D01*
X153907731Y-99688601D02*
X152929471Y-99688601D01*
X152929471Y-99688601D02*
X152250000Y-99009130D01*
X158580000Y-98500000D02*
X158580000Y-94023572D01*
X158580000Y-94023572D02*
X157345696Y-92789268D01*
X157345696Y-92789268D02*
X154910936Y-92789268D01*
X154910936Y-92789268D02*
X154585934Y-93114270D01*
X154585934Y-93114270D02*
X153823935Y-93876269D01*
X159823935Y-93876269D02*
X159823935Y-94953899D01*
X159823935Y-94953899D02*
X160500000Y-95629964D01*
X160500000Y-95629964D02*
X160500000Y-100000000D01*
X160500000Y-100000000D02*
X159460000Y-101040000D01*
X159460000Y-101040000D02*
X158580000Y-101040000D01*
M02*
